<svg width="60" height="60" viewBox="0 0 60 60" fill="none" xmlns="http://www.w3.org/2000/svg">
<mask id="mask0_1_46" style="mask-type:luminance" maskUnits="userSpaceOnUse" x="0" y="0" width="60" height="60">
<path d="M60 0H0V60H60V0Z" fill="white"/>
</mask>
<g mask="url(#mask0_1_46)">
<path d="M57.6245 13.2388L30.3822 0.0873024C30.1407 -0.0291822 29.8594 -0.0291822 29.618 0.0873024L2.37555 13.2388C2.0718 13.3854 1.87878 13.693 1.87878 14.0303V45.9696C1.87878 46.3069 2.0718 46.6145 2.37555 46.7611L29.6179 59.9126C29.7386 59.9709 29.8694 60 30 60C30.1307 60 30.2614 59.9709 30.3822 59.9126L57.6245 46.7611C57.9283 46.6145 58.1213 46.3069 58.1213 45.9696V14.0304C58.1213 13.6928 57.9281 13.3855 57.6245 13.2388ZM30 1.85484L55.2208 14.0303L47.9098 17.5598C47.8635 17.5244 47.8146 17.4919 47.761 17.466L22.7116 5.37339L30 1.85484ZM20.7267 6.36715L45.9107 18.5249L40.7527 21.015L15.579 8.86216L20.7267 6.36715ZM46.4999 20.1922V29.3968L41.682 31.7228V22.5182L46.4999 20.1922ZM56.3635 45.4181L30.8789 57.7207V27.7334L36.9578 24.7988C37.3949 24.5876 37.5782 24.0623 37.3672 23.6251C37.1561 23.1881 36.6307 23.0046 36.1935 23.2158L30 26.2058L27.563 25.0292C27.1258 24.818 26.6004 25.0015 26.3894 25.4386C26.1783 25.8757 26.3616 26.4012 26.7987 26.6122L29.1211 27.7334V57.7207L3.6366 45.4178V15.4305L23.0429 24.7991C23.166 24.8586 23.2962 24.8868 23.4243 24.8868C23.751 24.8868 24.0648 24.7037 24.2164 24.3897C24.4274 23.9527 24.2441 23.4272 23.807 23.2161L4.7793 14.0303L13.5103 9.81531L39.912 22.5609C39.9159 22.5663 39.9202 22.5711 39.9242 22.5764V33.1232C39.9242 33.4256 40.0797 33.7068 40.3359 33.8677C40.4781 33.9569 40.6404 34.0021 40.8032 34.0021C40.9335 34.0021 41.0642 33.9731 41.1852 33.9146L47.761 30.7401C48.0647 30.5936 48.2578 30.286 48.2578 29.9487V19.3438L56.3635 15.4306V45.4181Z" fill="#2EBB77"/>
<path d="M10.8896 42.0092L6.89175 40.0793C6.4544 39.868 5.92917 40.0515 5.71812 40.4887C5.50706 40.9257 5.69035 41.4512 6.12746 41.6623L10.1253 43.5922C10.2485 43.6518 10.3787 43.6799 10.5067 43.6799C10.8335 43.6799 11.1473 43.4968 11.2988 43.1829C11.51 42.7457 11.3267 42.2204 10.8896 42.0092Z" fill="#2EBB77"/>
<path d="M14.5693 39.6143L6.89754 35.9107C6.46031 35.6996 5.93496 35.8829 5.72391 36.3201C5.51296 36.7573 5.69625 37.2827 6.13336 37.4937L13.805 41.1974C13.9282 41.2568 14.0584 41.285 14.1865 41.285C14.5132 41.285 14.827 41.102 14.9785 40.788C15.1896 40.3507 15.0063 39.8252 14.5693 39.6143Z" fill="#2EBB77"/>
</g>
</svg>
