<svg width="19" height="19" viewBox="0 0 19 19" fill="none" xmlns="http://www.w3.org/2000/svg">
<g clip-path="url(#clip0_1_271)">
<g clip-path="url(#clip1_1_271)">
<g clip-path="url(#clip2_1_271)">
<path d="M17.59 9.70001C17.59 8.66901 17.4065 7.68051 17.07 6.76601C16.84 9.46051 15.4035 10.8445 13.9025 10.2C12.4965 9.59601 13.444 7.24151 13.514 6.11801C13.632 4.21351 13.508 2.03351 10.0485 0.221008C11.486 2.97101 10.215 4.67951 8.88197 4.78351C7.40297 4.89901 6.04847 3.51251 6.54847 1.26251C4.92947 2.45551 4.88247 4.46351 5.38197 5.76251C5.90297 7.11651 5.36097 8.24151 4.09047 8.36651C2.67047 8.50651 1.88147 6.84601 2.60897 4.20001C1.34997 5.68251 0.589966 7.60251 0.589966 9.70001C0.589966 14.3945 4.39547 18.2 9.08997 18.2C13.7845 18.2 17.59 14.3945 17.59 9.70001Z" fill="#F4900C"/>
<path d="M14.287 12.1995C14.361 13.7415 13.0065 14.346 12.2775 14.054C11.2245 13.6325 11.507 12.9085 11.236 11.4085C10.965 9.90851 9.92347 8.86701 8.38197 8.40851C9.50697 11.575 7.75847 12.742 6.84197 12.9505C5.90597 13.1635 4.96547 12.95 4.85797 10.947C3.76597 12.034 3.08997 13.538 3.08997 15.2C3.08997 15.384 3.10147 15.565 3.11747 15.745C4.65247 17.262 6.76097 18.2 9.08997 18.2C11.419 18.2 13.5275 17.262 15.0625 15.745C15.0785 15.565 15.09 15.384 15.09 15.2C15.09 14.1065 14.798 13.082 14.287 12.1995Z" fill="#FFCC4D"/>
</g>
</g>
</g>
<defs>
<clipPath id="clip0_1_271">
<rect width="18" height="18" fill="white" transform="translate(0.0899658 0.200012)"/>
</clipPath>
<clipPath id="clip1_1_271">
<rect width="18" height="18" fill="white" transform="translate(0.0899658 0.200012)"/>
</clipPath>
<clipPath id="clip2_1_271">
<rect width="18" height="18" fill="white" transform="translate(0.0899658 0.200012)"/>
</clipPath>
</defs>
</svg>
