<svg width="18" height="19" viewBox="0 0 18 19" fill="none" xmlns="http://www.w3.org/2000/svg">
<path d="M9.25 5.00781C11.7109 5.00781 13.7422 7.03906 13.7422 9.5C13.7422 12 11.7109 13.9922 9.25 13.9922C6.75 13.9922 4.75781 12 4.75781 9.5C4.75781 7.03906 6.75 5.00781 9.25 5.00781ZM9.25 12.4297C10.8516 12.4297 12.1406 11.1406 12.1406 9.5C12.1406 7.89844 10.8516 6.60938 9.25 6.60938C7.60938 6.60938 6.32031 7.89844 6.32031 9.5C6.32031 11.1406 7.64844 12.4297 9.25 12.4297ZM14.9531 4.85156C14.9531 5.4375 14.4844 5.90625 13.8984 5.90625C13.3125 5.90625 12.8438 5.4375 12.8438 4.85156C12.8438 4.26562 13.3125 3.79688 13.8984 3.79688C14.4844 3.79688 14.9531 4.26562 14.9531 4.85156ZM17.9219 5.90625C18 7.35156 18 11.6875 17.9219 13.1328C17.8438 14.5391 17.5312 15.75 16.5156 16.8047C15.5 17.8203 14.25 18.1328 12.8438 18.2109C11.3984 18.2891 7.0625 18.2891 5.61719 18.2109C4.21094 18.1328 3 17.8203 1.94531 16.8047C0.929688 15.75 0.617188 14.5391 0.539062 13.1328C0.460938 11.6875 0.460938 7.35156 0.539062 5.90625C0.617188 4.5 0.929688 3.25 1.94531 2.23438C3 1.21875 4.21094 0.90625 5.61719 0.828125C7.0625 0.75 11.3984 0.75 12.8438 0.828125C14.25 0.90625 15.5 1.21875 16.5156 2.23438C17.5312 3.25 17.8438 4.5 17.9219 5.90625ZM16.0469 14.6562C16.5156 13.5234 16.3984 10.7891 16.3984 9.5C16.3984 8.25 16.5156 5.51562 16.0469 4.34375C15.7344 3.60156 15.1484 2.97656 14.4062 2.70312C13.2344 2.23438 10.5 2.35156 9.25 2.35156C7.96094 2.35156 5.22656 2.23438 4.09375 2.70312C3.3125 3.01562 2.72656 3.60156 2.41406 4.34375C1.94531 5.51562 2.0625 8.25 2.0625 9.5C2.0625 10.7891 1.94531 13.5234 2.41406 14.6562C2.72656 15.4375 3.3125 16.0234 4.09375 16.3359C5.22656 16.8047 7.96094 16.6875 9.25 16.6875C10.5 16.6875 13.2344 16.8047 14.4062 16.3359C15.1484 16.0234 15.7734 15.4375 16.0469 14.6562Z" fill="#9B9B9B"/>
</svg>
