<svg width="115" height="50" viewBox="0 0 115 50" fill="none" xmlns="http://www.w3.org/2000/svg">
<g clip-path="url(#clip0_1_30)">
<path d="M38.0378 16.4844C38.142 16.4062 38.2559 16.3477 38.3796 16.3086C38.5033 16.2695 38.6303 16.25 38.7605 16.25C38.8907 16.25 39.0176 16.2695 39.1413 16.3086C39.265 16.3477 39.379 16.4062 39.4831 16.4844C39.6003 16.5495 39.698 16.6341 39.7761 16.7383C39.8542 16.8424 39.9128 16.9531 39.9519 17.0703L41.6706 21.3867C41.6706 21.3997 41.6706 21.4062 41.6706 21.4062C41.6706 21.4062 41.6706 21.4095 41.6706 21.416C41.6706 21.4225 41.6771 21.4258 41.6902 21.4258L46.2995 21.7188C46.8985 21.7578 47.2826 22.0605 47.4519 22.627C47.6212 23.1934 47.4844 23.6589 47.0417 24.0234L43.5066 26.9727C43.5066 26.9727 43.5033 26.9759 43.4968 26.9824C43.4903 26.9889 43.487 26.9922 43.487 26.9922C43.487 26.9922 43.487 26.9954 43.487 27.002C43.487 27.0085 43.487 27.0117 43.487 27.0117L44.6394 31.5039C44.7696 32.0508 44.6068 32.5065 44.1511 32.8711C43.6954 33.2357 43.2136 33.2552 42.7058 32.9297L38.7605 30.4297L35.0886 32.7539C34.5287 33.1055 33.9981 33.0794 33.4968 32.6758C32.9955 32.2721 32.823 31.7708 32.9792 31.1719L34.0339 27.0117C34.0339 27.0117 34.0339 27.0085 34.0339 27.002C34.0339 26.9954 34.0339 26.9922 34.0339 26.9922C34.0339 26.9922 34.0307 26.9889 34.0241 26.9824C34.0176 26.9759 34.0144 26.9727 34.0144 26.9727L30.4792 24.0234C30.0365 23.6589 29.8998 23.1934 30.0691 22.627C30.2383 22.0605 30.6225 21.7578 31.2214 21.7188L35.8308 21.4258C35.8438 21.4258 35.8503 21.4225 35.8503 21.416C35.8503 21.4095 35.8503 21.4062 35.8503 21.4062C35.8503 21.4062 35.8503 21.3997 35.8503 21.3867L37.5691 17.0703C37.6081 16.9531 37.6667 16.8424 37.7449 16.7383C37.823 16.6341 37.9206 16.5495 38.0378 16.4844ZM39.4441 29.375L43.3699 31.875C43.3829 31.875 43.3894 31.875 43.3894 31.875C43.3894 31.875 43.3959 31.875 43.4089 31.875C43.4089 31.862 43.4122 31.8555 43.4187 31.8555C43.4252 31.8555 43.4284 31.849 43.4284 31.8359C43.4284 31.8359 43.4284 31.8327 43.4284 31.8262C43.4284 31.8197 43.4284 31.8164 43.4284 31.8164L42.2761 27.3242C42.2501 27.207 42.2403 27.0866 42.2468 26.9629C42.2533 26.8392 42.2761 26.7188 42.3152 26.6016C42.3412 26.4844 42.39 26.3737 42.4616 26.2695C42.5333 26.1654 42.6146 26.0742 42.7058 25.9961L46.2409 23.0664C46.2409 23.0534 46.2442 23.0469 46.2507 23.0469C46.2572 23.0469 46.2605 23.0469 46.2605 23.0469C46.2605 23.0469 46.2605 23.0404 46.2605 23.0273C46.2605 23.0273 46.2605 23.0241 46.2605 23.0176C46.2605 23.0111 46.2605 23.0013 46.2605 22.9883C46.2605 22.9883 46.2572 22.985 46.2507 22.9785C46.2442 22.972 46.2409 22.9688 46.2409 22.9688C46.2409 22.9688 46.2344 22.9688 46.2214 22.9688L41.6316 22.6758C41.6316 22.6758 41.6283 22.6758 41.6218 22.6758C41.6153 22.6758 41.612 22.6758 41.612 22.6758C41.4949 22.6628 41.3777 22.6367 41.2605 22.5977C41.1433 22.5586 41.0391 22.5 40.948 22.4219C40.8438 22.3438 40.7559 22.2591 40.6843 22.168C40.6127 22.0768 40.5508 21.9727 40.4988 21.8555L38.78 17.5195C38.78 17.5065 38.78 17.5 38.78 17.5C38.78 17.5 38.7768 17.5 38.7702 17.5C38.7637 17.5 38.7605 17.5 38.7605 17.5C38.7605 17.5 38.7572 17.5 38.7507 17.5C38.7442 17.5 38.7409 17.5 38.7409 17.5C38.7409 17.5 38.7409 17.5065 38.7409 17.5195L37.0222 21.8555C36.9701 21.9727 36.9083 22.0768 36.8366 22.168C36.765 22.2591 36.6771 22.3438 36.573 22.4219C36.4818 22.5 36.3777 22.5586 36.2605 22.5977C36.1433 22.6367 36.0261 22.6628 35.9089 22.6758L31.2995 22.9688C31.2865 22.9688 31.28 22.9688 31.28 22.9688C31.28 22.9688 31.2768 22.972 31.2702 22.9785C31.2637 22.985 31.2605 22.9883 31.2605 22.9883C31.2605 23.0013 31.2605 23.0111 31.2605 23.0176C31.2605 23.0241 31.2605 23.0273 31.2605 23.0273C31.2605 23.0404 31.2605 23.0469 31.2605 23.0469C31.2605 23.0469 31.2637 23.0469 31.2702 23.0469C31.2768 23.0469 31.28 23.0534 31.28 23.0664L34.8152 25.9961C34.9063 26.0742 34.9877 26.1654 35.0593 26.2695C35.1309 26.3737 35.1797 26.4844 35.2058 26.6016C35.2449 26.7188 35.2676 26.8392 35.2741 26.9629C35.2807 27.0866 35.2709 27.207 35.2449 27.3242L34.1902 31.4844C34.1771 31.5234 34.1771 31.5625 34.1902 31.6016C34.2032 31.6406 34.2227 31.6667 34.2488 31.6797C34.2618 31.6927 34.2748 31.7025 34.2878 31.709C34.3008 31.7155 34.3139 31.7188 34.3269 31.7188C34.3399 31.7188 34.3529 31.7188 34.3659 31.7188C34.379 31.7188 34.3985 31.7122 34.4245 31.6992L38.0769 29.375C38.181 29.3099 38.2917 29.2611 38.4089 29.2285C38.5261 29.196 38.6433 29.1797 38.7605 29.1797C38.8777 29.1797 38.9949 29.196 39.112 29.2285C39.2292 29.2611 39.3399 29.3099 39.4441 29.375Z" fill="black"/>
</g>
<rect x="42" y="5" width="18" height="18" rx="9" fill="#2EBB77"/>
<path d="M51.2005 18.144C50.4885 18.144 49.8645 17.952 49.3285 17.568C48.8005 17.176 48.3885 16.636 48.0925 15.948C47.7965 15.252 47.6485 14.444 47.6485 13.524C47.6485 12.604 47.7965 11.8 48.0925 11.112C48.3885 10.416 48.8005 9.876 49.3285 9.492C49.8565 9.108 50.4765 8.916 51.1885 8.916C51.9005 8.916 52.5205 9.108 53.0485 9.492C53.5765 9.876 53.9885 10.416 54.2845 11.112C54.5885 11.8 54.7405 12.604 54.7405 13.524C54.7405 14.444 54.5925 15.252 54.2965 15.948C54.0005 16.644 53.5845 17.184 53.0485 17.568C52.5205 17.952 51.9045 18.144 51.2005 18.144ZM51.2005 17.052C51.6805 17.052 52.0965 16.908 52.4485 16.62C52.8005 16.324 53.0725 15.912 53.2645 15.384C53.4645 14.856 53.5645 14.236 53.5645 13.524C53.5645 12.812 53.4645 12.192 53.2645 11.664C53.0725 11.136 52.7965 10.728 52.4365 10.44C52.0845 10.152 51.6685 10.008 51.1885 10.008C50.7085 10.008 50.2925 10.152 49.9405 10.44C49.5885 10.728 49.3125 11.136 49.1125 11.664C48.9205 12.192 48.8245 12.812 48.8245 13.524C48.8245 14.228 48.9205 14.844 49.1125 15.372C49.3125 15.9 49.5885 16.312 49.9405 16.608C50.3005 16.904 50.7205 17.052 51.2005 17.052Z" fill="white"/>
<path d="M82.373 20H94.9902C95.1465 20 95.2962 20.026 95.4395 20.0781C95.5827 20.1302 95.7129 20.2083 95.8301 20.3125C95.9473 20.4167 96.0417 20.5371 96.1133 20.6738C96.1849 20.8105 96.2272 20.9505 96.2402 21.0938C96.2402 21.1068 96.2402 21.1133 96.2402 21.1133L97.3535 31.1133C97.3665 31.2044 97.3665 31.2923 97.3535 31.377C97.3405 31.4616 97.321 31.543 97.2949 31.6211C97.2689 31.7122 97.2363 31.7936 97.1973 31.8652C97.1582 31.9368 97.1061 32.0052 97.041 32.0703C96.9889 32.1484 96.9271 32.2135 96.8555 32.2656C96.7839 32.3177 96.709 32.3568 96.6309 32.3828C96.5397 32.4219 96.4518 32.4512 96.3672 32.4707C96.2826 32.4902 96.2012 32.5 96.123 32.5H81.2402C81.1621 32.5 81.0807 32.4902 80.9961 32.4707C80.9115 32.4512 80.8236 32.4219 80.7324 32.3828C80.6543 32.3568 80.5794 32.3177 80.5078 32.2656C80.4362 32.2135 80.3743 32.1484 80.3223 32.0703C80.2572 32.0052 80.2051 31.9368 80.166 31.8652C80.127 31.7936 80.0944 31.7122 80.0684 31.6211C80.0423 31.543 80.0228 31.4616 80.0098 31.377C79.9967 31.2923 79.9967 31.2044 80.0098 31.1133L81.123 21.1133C81.123 21.1133 81.123 21.1068 81.123 21.0938C81.1361 20.9505 81.1784 20.8105 81.25 20.6738C81.3216 20.5371 81.416 20.4167 81.5332 20.3125C81.6504 20.2083 81.7806 20.1302 81.9238 20.0781C82.0671 20.026 82.2168 20 82.373 20ZM94.9902 21.25H82.373L81.2598 31.25H96.1035L94.9902 21.25ZM88.6816 18.125C88.3561 18.125 88.0371 18.1868 87.7246 18.3105C87.4121 18.4342 87.1387 18.6133 86.9043 18.8477C86.6699 19.082 86.4909 19.3555 86.3672 19.668C86.2435 19.9805 86.1816 20.2995 86.1816 20.625V23.125C86.1816 23.2943 86.1198 23.4408 85.9961 23.5645C85.8724 23.6882 85.7259 23.75 85.5566 23.75C85.3874 23.75 85.2409 23.6882 85.1172 23.5645C84.9935 23.4408 84.9316 23.2943 84.9316 23.125V20.625C84.9316 20.1302 85.026 19.6517 85.2148 19.1895C85.4036 18.7272 85.6738 18.3203 86.0254 17.9688C86.377 17.6172 86.7839 17.347 87.2461 17.1582C87.7083 16.9694 88.1868 16.875 88.6816 16.875C89.1764 16.875 89.6549 16.9694 90.1172 17.1582C90.5794 17.347 90.9863 17.6172 91.3379 17.9688C91.6895 18.3203 91.9596 18.7272 92.1484 19.1895C92.3372 19.6517 92.4316 20.1302 92.4316 20.625V23.125C92.4316 23.2943 92.3698 23.4408 92.2461 23.5645C92.1224 23.6882 91.9759 23.75 91.8066 23.75C91.6374 23.75 91.4909 23.6882 91.3672 23.5645C91.2435 23.4408 91.1816 23.2943 91.1816 23.125V20.625C91.1816 20.2995 91.1198 19.9805 90.9961 19.668C90.8724 19.3555 90.6934 19.082 90.459 18.8477C90.2246 18.6133 89.9512 18.4342 89.6387 18.3105C89.3262 18.1868 89.0072 18.125 88.6816 18.125Z" fill="black"/>
<rect x="92" y="5" width="18" height="18" rx="9" fill="#2EBB77"/>
<path d="M101.2 18.144C100.488 18.144 99.8645 17.952 99.3285 17.568C98.8005 17.176 98.3885 16.636 98.0925 15.948C97.7965 15.252 97.6485 14.444 97.6485 13.524C97.6485 12.604 97.7965 11.8 98.0925 11.112C98.3885 10.416 98.8005 9.876 99.3285 9.492C99.8565 9.108 100.476 8.916 101.188 8.916C101.9 8.916 102.52 9.108 103.048 9.492C103.576 9.876 103.988 10.416 104.284 11.112C104.588 11.8 104.74 12.604 104.74 13.524C104.74 14.444 104.592 15.252 104.296 15.948C104 16.644 103.584 17.184 103.048 17.568C102.52 17.952 101.904 18.144 101.2 18.144ZM101.2 17.052C101.68 17.052 102.096 16.908 102.448 16.62C102.8 16.324 103.072 15.912 103.264 15.384C103.464 14.856 103.564 14.236 103.564 13.524C103.564 12.812 103.464 12.192 103.264 11.664C103.072 11.136 102.796 10.728 102.436 10.44C102.084 10.152 101.668 10.008 101.188 10.008C100.708 10.008 100.292 10.152 99.9405 10.44C99.5885 10.728 99.3125 11.136 99.1125 11.664C98.9205 12.192 98.8245 12.812 98.8245 13.524C98.8245 14.228 98.9205 14.844 99.1125 15.372C99.3125 15.9 99.5885 16.312 99.9405 16.608C100.3 16.904 100.72 17.052 101.2 17.052Z" fill="white"/>
<defs>
<clipPath id="clip0_1_30">
<rect width="20" height="20" fill="white" transform="matrix(1 0 0 -1 30 35)"/>
</clipPath>
</defs>
</svg>
