<svg width="18" height="17" viewBox="0 0 18 17" fill="none" xmlns="http://www.w3.org/2000/svg">
<path d="M2.37305 4H14.9902C15.1465 4 15.2962 4.02604 15.4395 4.07812C15.5827 4.13021 15.7129 4.20833 15.8301 4.3125C15.9473 4.41667 16.0417 4.53711 16.1133 4.67383C16.1849 4.81055 16.2272 4.95052 16.2402 5.09375C16.2402 5.10677 16.2402 5.11328 16.2402 5.11328L17.3535 15.1133C17.3665 15.2044 17.3665 15.2923 17.3535 15.377C17.3405 15.4616 17.321 15.543 17.2949 15.6211C17.2689 15.7122 17.2363 15.7936 17.1973 15.8652C17.1582 15.9368 17.1061 16.0052 17.041 16.0703C16.9889 16.1484 16.9271 16.2135 16.8555 16.2656C16.7839 16.3177 16.709 16.3568 16.6309 16.3828C16.5397 16.4219 16.4518 16.4512 16.3672 16.4707C16.2826 16.4902 16.2012 16.5 16.123 16.5H1.24023C1.16211 16.5 1.08073 16.4902 0.996094 16.4707C0.911458 16.4512 0.823568 16.4219 0.732422 16.3828C0.654297 16.3568 0.579427 16.3177 0.507812 16.2656C0.436198 16.2135 0.374349 16.1484 0.322266 16.0703C0.257161 16.0052 0.205078 15.9368 0.166016 15.8652C0.126953 15.7936 0.094401 15.7122 0.0683594 15.6211C0.0423177 15.543 0.0227865 15.4616 0.00976562 15.377C-0.00325521 15.2923 -0.00325521 15.2044 0.00976562 15.1133L1.12305 5.11328C1.12305 5.11328 1.12305 5.10677 1.12305 5.09375C1.13607 4.95052 1.17839 4.81055 1.25 4.67383C1.32161 4.53711 1.41602 4.41667 1.5332 4.3125C1.65039 4.20833 1.7806 4.13021 1.92383 4.07812C2.06706 4.02604 2.2168 4 2.37305 4ZM14.9902 5.25H2.37305L1.25977 15.25H16.1035L14.9902 5.25ZM8.68164 2.125C8.35612 2.125 8.03711 2.18685 7.72461 2.31055C7.41211 2.43425 7.13867 2.61328 6.9043 2.84766C6.66992 3.08203 6.49089 3.35547 6.36719 3.66797C6.24349 3.98047 6.18164 4.29948 6.18164 4.625V7.125C6.18164 7.29427 6.11979 7.44075 5.99609 7.56445C5.8724 7.68815 5.72591 7.75 5.55664 7.75C5.38737 7.75 5.24089 7.68815 5.11719 7.56445C4.99349 7.44075 4.93164 7.29427 4.93164 7.125V4.625C4.93164 4.13021 5.02604 3.65169 5.21484 3.18945C5.40365 2.72721 5.67383 2.32031 6.02539 1.96875C6.37695 1.61719 6.78385 1.347 7.24609 1.1582C7.70833 0.969401 8.18685 0.875 8.68164 0.875C9.17643 0.875 9.65495 0.969401 10.1172 1.1582C10.5794 1.347 10.9863 1.61719 11.3379 1.96875C11.6895 2.32031 11.9596 2.72721 12.1484 3.18945C12.3372 3.65169 12.4316 4.13021 12.4316 4.625V7.125C12.4316 7.29427 12.3698 7.44075 12.2461 7.56445C12.1224 7.68815 11.9759 7.75 11.8066 7.75C11.6374 7.75 11.4909 7.68815 11.3672 7.56445C11.2435 7.44075 11.1816 7.29427 11.1816 7.125V4.625C11.1816 4.29948 11.1198 3.98047 10.9961 3.66797C10.8724 3.35547 10.6934 3.08203 10.459 2.84766C10.2246 2.61328 9.95117 2.43425 9.63867 2.31055C9.32617 2.18685 9.00716 2.125 8.68164 2.125Z" fill="black"/>
</svg>
