<svg width="18" height="18" viewBox="0 0 18 18" fill="none" xmlns="http://www.w3.org/2000/svg">
<path d="M8.03776 0.484377C8.14192 0.406252 8.25586 0.347658 8.37956 0.308596C8.50325 0.269533 8.63021 0.250002 8.76042 0.250002C8.89062 0.250002 9.01758 0.269533 9.14127 0.308596C9.26497 0.347658 9.3789 0.406252 9.48307 0.484377C9.60026 0.54948 9.69792 0.634117 9.77604 0.738283C9.85417 0.842449 9.91276 0.953127 9.95182 1.07031L11.6706 5.38672C11.6706 5.39974 11.6706 5.40625 11.6706 5.40625C11.6706 5.40625 11.6706 5.40951 11.6706 5.41602C11.6706 5.42253 11.6771 5.42578 11.6901 5.42578L16.2995 5.71875C16.8984 5.75781 17.2826 6.06055 17.4518 6.62696C17.6211 7.19336 17.4844 7.65886 17.0417 8.02344L13.5065 10.9727C13.5065 10.9727 13.5033 10.9759 13.4967 10.9824C13.4902 10.9889 13.487 10.9922 13.487 10.9922C13.487 10.9922 13.487 10.9954 13.487 11.002C13.487 11.0085 13.487 11.0117 13.487 11.0117L14.6393 15.5039C14.7695 16.0508 14.6068 16.5065 14.151 16.8711C13.6953 17.2357 13.2135 17.2552 12.7057 16.9297L8.76042 14.4297L5.08854 16.7539C4.52864 17.1055 3.99805 17.0794 3.49674 16.6758C2.99544 16.2721 2.82292 15.7708 2.97917 15.1719L4.03385 11.0117C4.03385 11.0117 4.03385 11.0085 4.03385 11.002C4.03385 10.9954 4.03385 10.9922 4.03385 10.9922C4.03385 10.9922 4.0306 10.9889 4.02409 10.9824C4.01758 10.9759 4.01432 10.9727 4.01432 10.9727L0.479165 8.02344C0.0364566 7.65886 -0.100262 7.19336 0.0690087 6.62696C0.23828 6.06055 0.622394 5.75781 1.22135 5.71875L5.83073 5.42578C5.84375 5.42578 5.85026 5.42253 5.85026 5.41602C5.85026 5.40951 5.85026 5.40625 5.85026 5.40625C5.85026 5.40625 5.85026 5.39974 5.85026 5.38672L7.56901 1.07031C7.60807 0.953127 7.66666 0.842449 7.74479 0.738283C7.82291 0.634117 7.92057 0.54948 8.03776 0.484377ZM9.44401 13.375L13.3698 15.875C13.3828 15.875 13.3893 15.875 13.3893 15.875C13.3893 15.875 13.3958 15.875 13.4089 15.875C13.4089 15.862 13.4121 15.8555 13.4186 15.8555C13.4251 15.8555 13.4284 15.849 13.4284 15.8359C13.4284 15.8359 13.4284 15.8327 13.4284 15.8262C13.4284 15.8197 13.4284 15.8164 13.4284 15.8164L12.276 11.3242C12.25 11.207 12.2402 11.0866 12.2467 10.9629C12.2533 10.8392 12.276 10.7188 12.3151 10.6016C12.3411 10.4844 12.39 10.3737 12.4616 10.2695C12.5332 10.1654 12.6146 10.0742 12.7057 9.9961L16.2409 7.06641C16.2409 7.05339 16.2441 7.04688 16.2507 7.04688C16.2572 7.04688 16.2604 7.04688 16.2604 7.04688C16.2604 7.04688 16.2604 7.04037 16.2604 7.02735C16.2604 7.02735 16.2604 7.02409 16.2604 7.01758C16.2604 7.01107 16.2604 7.0013 16.2604 6.98828C16.2604 6.98828 16.2572 6.98503 16.2507 6.97852C16.2441 6.97201 16.2409 6.96875 16.2409 6.96875C16.2409 6.96875 16.2344 6.96875 16.2214 6.96875L11.6315 6.67578C11.6315 6.67578 11.6283 6.67578 11.6217 6.67578C11.6152 6.67578 11.612 6.67578 11.612 6.67578C11.4948 6.66276 11.3776 6.63672 11.2604 6.59766C11.1432 6.5586 11.0391 6.5 10.9479 6.42188C10.8437 6.34375 10.7559 6.25912 10.6842 6.16797C10.6126 6.07683 10.5508 5.97266 10.4987 5.85547L8.77995 1.51953C8.77995 1.50651 8.77995 1.5 8.77995 1.5C8.77995 1.5 8.77669 1.5 8.77018 1.5C8.76367 1.5 8.76042 1.5 8.76042 1.5C8.76042 1.5 8.75716 1.5 8.75065 1.5C8.74414 1.5 8.74088 1.5 8.74088 1.5C8.74088 1.5 8.74088 1.50651 8.74088 1.51953L7.02213 5.85547C6.97005 5.97266 6.9082 6.07683 6.83659 6.16797C6.76497 6.25912 6.67708 6.34375 6.57291 6.42188C6.48177 6.5 6.3776 6.5586 6.26041 6.59766C6.14323 6.63672 6.02604 6.66276 5.90885 6.67578L1.29948 6.96875C1.28646 6.96875 1.27995 6.96875 1.27995 6.96875C1.27995 6.96875 1.27669 6.97201 1.27018 6.97852C1.26367 6.98503 1.26041 6.98828 1.26041 6.98828C1.26041 7.0013 1.26041 7.01107 1.26041 7.01758C1.26041 7.02409 1.26041 7.02735 1.26041 7.02735C1.26041 7.04037 1.26041 7.04688 1.26041 7.04688C1.26041 7.04688 1.26367 7.04688 1.27018 7.04688C1.27669 7.04688 1.27995 7.05339 1.27995 7.06641L4.8151 9.9961C4.90625 10.0742 4.98763 10.1654 5.05924 10.2695C5.13086 10.3737 5.17969 10.4844 5.20573 10.6016C5.24479 10.7188 5.26758 10.8392 5.27409 10.9629C5.2806 11.0866 5.27083 11.207 5.24479 11.3242L4.1901 15.4844C4.17708 15.5234 4.17708 15.5625 4.1901 15.6016C4.20312 15.6406 4.22265 15.6667 4.2487 15.6797C4.26172 15.6927 4.27474 15.7025 4.28776 15.709C4.30078 15.7155 4.3138 15.7188 4.32682 15.7188C4.33984 15.7188 4.35286 15.7188 4.36588 15.7188C4.3789 15.7188 4.39844 15.7122 4.42448 15.6992L8.07682 13.375C8.18099 13.3099 8.29167 13.2611 8.40885 13.2285C8.52604 13.196 8.64323 13.1797 8.76042 13.1797C8.8776 13.1797 8.99479 13.196 9.11198 13.2285C9.22917 13.2611 9.33984 13.3099 9.44401 13.375Z" fill="black"/>
</svg>
