<svg width="60" height="70" viewBox="0 0 60 70" fill="none" xmlns="http://www.w3.org/2000/svg">
<g clip-path="url(#clip0_1_21)">
<mask id="mask0_1_21" style="mask-type:luminance" maskUnits="userSpaceOnUse" x="0" y="5" width="60" height="60">
<path d="M60 5H0V65H60V5Z" fill="white"/>
</mask>
<g mask="url(#mask0_1_21)">
<path d="M55.9073 43.3346C56.1423 42.7829 56.0201 42.1526 55.5962 41.7285L49.2837 35.416C48.9412 35.0736 48.386 35.0736 48.0435 35.416C47.7011 35.7585 47.7011 36.3137 48.0435 36.6561L53.8425 42.4552L44.6007 42.2703C43.9821 42.2574 43.3795 42.5012 42.9429 42.9375L27.1371 58.7436C27.0231 58.8576 26.8376 58.8575 26.7237 58.7436L14.7231 46.7429L15.6789 44.9183C15.7622 44.7595 15.89 44.6316 16.0488 44.5485L24.5854 40.0761C25.1025 39.8051 25.4016 39.2748 25.3658 38.692C25.33 38.1093 24.9684 37.6195 24.422 37.4139L16.5694 34.4579L31.0007 20.0267C31.1146 19.9127 31.3001 19.9128 31.414 20.0267L33.4299 22.0425V27.947C32.0708 28.3303 31.0714 29.5805 31.0714 31.0606C31.0714 32.8447 32.5227 34.2961 34.3068 34.2961C36.0909 34.2961 37.5423 32.8447 37.5423 31.0606C37.5423 29.5805 36.5429 28.3303 35.1837 27.947V23.7962L45.2158 33.8281C45.5583 34.1705 46.1135 34.1705 46.4559 33.8281C46.7983 33.4857 46.7983 32.9305 46.4559 32.5881L35.1838 21.316V17.1495C35.1838 12.8856 31.715 9.41669 27.4511 9.41669C23.1873 9.41669 19.7184 12.8856 19.7184 17.1495V28.8292L14.7681 33.7796L1.97854 28.9653C1.43468 28.7606 0.841359 28.8887 0.430383 29.2995C0.0194059 29.7105 -0.108797 30.3039 0.0959296 30.8478L2.16523 36.3448C2.33585 36.7981 2.84187 37.0272 3.2948 36.8566C3.74808 36.686 3.97718 36.1803 3.80655 35.727L1.96461 30.8338L23.1939 38.8252L15.235 42.9949C14.7589 43.2442 14.3753 43.6278 14.1256 44.1043L9.95597 52.0632L5.18738 39.3955C5.01675 38.9422 4.51097 38.7132 4.05781 38.8837C3.60464 39.0543 3.37542 39.56 3.54604 40.0133L8.54433 53.2915C8.74997 53.8379 9.23974 54.1995 9.82251 54.2353C10.398 54.2726 10.9371 53.9727 11.2066 53.4548L13.8703 48.3704L25.4835 59.9837C25.8699 60.3701 26.3838 60.5829 26.9303 60.5829C27.4768 60.5829 27.9907 60.3701 28.377 59.9837L44.1831 44.1777C44.2839 44.077 44.4218 44.0218 44.5657 44.0236L54.5335 44.2231C55.1354 44.2322 55.6722 43.8862 55.9073 43.3346ZM35.7885 31.0606C35.7885 31.8777 35.1237 32.5424 34.3067 32.5424C33.4897 32.5424 32.825 31.8777 32.825 31.0606C32.825 30.5711 33.0646 30.1377 33.4316 29.8677C33.4499 30.3358 33.8341 30.7099 34.3067 30.7099C34.7793 30.7099 35.1635 30.3358 35.1819 29.8677C35.5489 30.1377 35.7885 30.5711 35.7885 31.0606ZM21.4718 17.1495C21.4718 13.8527 24.1539 11.1705 27.4508 11.1705C30.7476 11.1705 33.4298 13.8527 33.4298 17.1495V19.5624L32.6541 18.7867C31.8563 17.9889 30.5583 17.9889 29.7605 18.7867L21.4716 27.0755L21.4718 17.1495Z" fill="#2EBB77"/>
<path d="M55.7157 46.1303C55.4681 45.8079 55.0931 45.6228 54.6868 45.6228C54.2805 45.6228 53.9055 45.8079 53.6579 46.1305C52.058 48.2159 49.3738 52.0403 49.3738 54.2219C49.3738 57.1515 51.7572 59.535 54.6867 59.535C57.6163 59.535 59.9998 57.1515 59.9998 54.2219C59.9998 52.0403 57.3157 48.2159 55.7157 46.1303ZM54.6868 57.7811C52.7243 57.7811 51.1276 56.1844 51.1276 54.2218C51.1276 53.1203 52.5121 50.5839 54.6868 47.6763C56.8617 50.5839 58.2461 53.1203 58.2461 54.2218C58.2461 56.1844 56.6494 57.7811 54.6868 57.7811Z" fill="#2EBB77"/>
</g>
</g>
<defs>
<clipPath id="clip0_1_21">
<rect width="60" height="70" fill="white"/>
</clipPath>
</defs>
</svg>
